<svg xmlns="http://www.w3.org/2000/svg" width="90" height="90" viewBox="0 0 23.813 23.813"><path d="M12.095 1.512A10.772 10.772 0 001.323 12.284a10.772 10.772 0 0010.772 10.773 10.772 10.772 0 0010.772-10.773A10.772 10.772 0 0012.095 1.512zm-.046 1.9a8.734 8.734 0 018.734 8.733 8.734 8.734 0 01-8.734 8.734 8.734 8.734 0 01-8.734-8.734 8.734 8.734 0 018.734-8.733z" fill="red"/><path d="M6.326 11.264v3.235h11.566v-3.235zm9.094.263a1.258 1.152 0 011.258 1.152 1.258 1.152 0 01-1.258 1.152 1.258 1.152 0 01-1.258-1.152 1.258 1.152 0 011.258-1.152zm-6.732.06A1.214 1.112 0 019.902 12.7a1.214 1.112 0 01-1.214 1.112A1.214 1.112 0 017.474 12.7a1.214 1.112 0 011.214-1.111z" stroke="#000" stroke-width=".473" stroke-linejoin="round"/><path d="M7.418 15.97v2.456a.82.82 0 00.82.786.82.82 0 00.82-.786h.013V15.97H7.418zm7.725.032v2.458a.82.82 0 00.82.785.82.82 0 00.82-.785h.013v-2.457zM7.418 7.04h8.906v.567H7.418z" paint-order="stroke fill markers"/><path paint-order="stroke fill markers" d="M6.151 11.375l1.267-4.317.566.08-1.266 4.318zm10.195-4.262l1.572 4.266-.544-.05-1.571-4.265z"/></svg>